<svg xmlns="http://www.w3.org/2000/svg" xmlns:xlink="http://www.w3.org/1999/xlink" fill="none" version="1.1" width="137" height="32" viewBox="0 0 137 32"><g><path d="M5.104,26L5.104,11.168L6.496,11.168L6.496,13.8646Q6.7675,13.1064,7.35588,12.4205Q7.94463,11.7343,8.78538,11.2831Q9.6265,10.832,10.648,10.832Q11.7865,10.832,12.5534,11.0994Q13.3206,11.3667,13.864,12.0076Q14.4074,12.6481,14.8709,13.7705L13.6383,14.3311Q13.3263,13.472,12.9419,12.9965Q12.5575,12.5206,12.019,12.3166Q11.4805,12.1126,10.648,12.1126Q9.45475,12.1126,8.656,12.6718Q7.85725,13.2309,7.38663,14.0802Q6.91638,14.9292,6.706,15.8431Q6.496,16.757,6.496,17.4867L6.496,26L5.104,26ZM22.936,26.336Q21.013,26.336,19.9,25.9306Q18.787,25.5249,18.3175,24.5675Q17.848,23.6098,17.848,21.9699Q17.848,20.219,18.3175,19.2256Q18.787,18.2319,19.9,17.8239Q21.013,17.4159,22.936,17.4159L26.632,17.4159L26.632,15.9823Q26.632,14.5156,26.2953,13.688Q25.9589,12.8604,25.1538,12.5056Q24.349,12.1509,22.936,12.1509Q21.9078,12.1509,21.2631,12.365Q20.6185,12.5791,20.2259,13.1112Q19.8333,13.643,19.549,14.57L18.2129,14.2362Q18.6006,12.9583,19.1541,12.2101Q19.7076,11.4616,20.6185,11.147Q21.5298,10.832,22.936,10.832Q24.8628,10.832,25.9758,11.3173Q27.0891,11.8025,27.5564,12.9301Q28.024,14.0577,28.024,15.9823L28.024,22.2099Q28.024,23.1987,28.1879,23.7459Q28.3521,24.293,28.7703,24.5082Q29.1884,24.7231,29.896,24.7156L29.896,25.9963Q28.5681,26.0075,27.9516,25.6025Q27.3355,25.1975,27.0891,24.0942Q26.6571,24.9286,26.1231,25.4277Q25.5895,25.9269,24.8253,26.1313Q24.061,26.336,22.936,26.336ZM22.936,25.0554Q24.349,25.0554,25.1538,24.6628Q25.9589,24.2701,26.2953,23.339Q26.632,22.4079,26.632,20.7778L26.632,18.6961L22.936,18.6961Q21.523,18.6961,20.716,18.9853Q19.909,19.2744,19.5745,19.9858Q19.24,20.6971,19.24,21.9699Q19.24,23.144,19.5745,23.8134Q19.909,24.4824,20.716,24.7689Q21.523,25.0554,22.936,25.0554ZM32.296,26L32.296,11.168L33.688,11.168L33.688,12.5581Q34.3563,11.6585,35.2743,11.2452Q36.1926,10.832,37.912,10.832Q39.6505,10.832,40.6334,11.3439Q41.6166,11.8554,42.0321,13.0745Q42.448,14.2936,42.448,16.4161L42.448,26L41.056,26L41.056,16.4161Q41.056,14.771,40.7654,13.8403Q40.4751,12.9095,39.7983,12.5112Q39.1218,12.1126,37.912,12.1126Q36.2954,12.1126,35.3703,12.4411Q34.4455,12.7692,34.0668,13.6381Q33.688,14.507,33.688,16.1521L33.688,26L32.296,26ZM51.04,26.336Q49.0615,26.336,47.9121,25.6186Q46.7631,24.9009,46.2734,23.207Q45.784,21.5131,45.784,18.608Q45.784,15.6789,46.2734,13.973Q46.7631,12.2671,47.9121,11.5498Q49.0615,10.832,51.04,10.832Q52.4024,10.832,53.4156,11.2618Q54.4289,11.6911,54.928,12.7963L54.928,6.8L56.32,6.8L56.32,26L54.928,26L54.928,24.8862Q54.3884,25.6936,53.3853,26.0146Q52.3821,26.336,51.04,26.336ZM51.04,25.0554Q52.1114,25.0554,52.9863,24.8652Q53.8615,24.6751,54.3948,24.2364Q54.928,23.7976,54.928,23.0319L54.928,16.1041Q54.928,13.8973,53.8701,13.0051Q52.8123,12.1126,51.04,12.1126Q49.5828,12.1126,48.7296,12.7074Q47.8769,13.3021,47.5263,14.7159Q47.176,16.1292,47.176,18.608Q47.176,21.0627,47.5263,22.4645Q47.8769,23.8659,48.7296,24.4606Q49.5828,25.0554,51.04,25.0554ZM60.136,26L60.136,11.168L61.528,11.168L61.528,12.5581Q62.1963,11.6585,63.1143,11.2452Q64.0326,10.832,65.752,10.832Q67.4905,10.832,68.4734,11.3439Q69.4566,11.8554,69.8721,13.0745Q70.288,14.2936,70.288,16.4161L70.288,26L68.896,26L68.896,16.4161Q68.896,14.771,68.6054,13.8403Q68.3151,12.9095,67.6383,12.5112Q66.9618,12.1126,65.752,12.1126Q64.1354,12.1126,63.2103,12.4411Q62.2855,12.7692,61.9068,13.6381Q61.528,14.507,61.528,16.1521L61.528,26L60.136,26ZM78.616,26.336Q76.693,26.336,75.58,25.9306Q74.467,25.5249,73.9975,24.5675Q73.528,23.6098,73.528,21.9699Q73.528,20.219,73.9975,19.2256Q74.467,18.2319,75.58,17.8239Q76.693,17.4159,78.616,17.4159L82.312,17.4159L82.312,15.9823Q82.312,14.5156,81.9753,13.688Q81.6389,12.8604,80.8338,12.5056Q80.029,12.1509,78.616,12.1509Q77.5878,12.1509,76.9431,12.365Q76.2985,12.5791,75.9059,13.1112Q75.5133,13.643,75.229,14.57L73.8929,14.2362Q74.2806,12.9583,74.8341,12.2101Q75.3876,11.4616,76.2985,11.147Q77.2098,10.832,78.616,10.832Q80.5428,10.832,81.6558,11.3173Q82.7691,11.8025,83.2364,12.9301Q83.704,14.0577,83.704,15.9823L83.704,22.2099Q83.704,23.1987,83.8679,23.7459Q84.0321,24.293,84.4503,24.5082Q84.8684,24.7231,85.576,24.7156L85.576,25.9963Q84.2481,26.0075,83.6316,25.6025Q83.0155,25.1975,82.7691,24.0942Q82.3371,24.9286,81.8031,25.4277Q81.2695,25.9269,80.5052,26.1313Q79.741,26.336,78.616,26.336ZM78.616,25.0554Q80.029,25.0554,80.8338,24.6628Q81.6389,24.2701,81.9753,23.339Q82.312,22.4079,82.312,20.7778L82.312,18.6961L78.616,18.6961Q77.203,18.6961,76.396,18.9853Q75.589,19.2744,75.2545,19.9858Q74.92,20.6971,74.92,21.9699Q74.92,23.144,75.2545,23.8134Q75.589,24.4824,76.396,24.7689Q77.203,25.0554,78.616,25.0554ZM87.0123,26L87.0123,11.168L88.4043,11.168L88.4043,12.3759Q88.8756,11.4991,89.3804,11.1657Q89.8855,10.832,90.7323,10.832Q91.696,10.832,92.1917,11.2951Q92.6875,11.7583,93.0389,12.9613Q93.6629,11.7583,94.2831,11.2951Q94.9034,10.832,95.944,10.832Q97.0383,10.832,97.6712,11.3337Q98.3046,11.8351,98.566,13.0426Q98.8278,14.2498,98.8278,16.3441L98.8278,26L97.4358,26L97.4358,16.3441Q97.4358,14.7384,97.2993,13.8174Q97.1631,12.896,96.8361,12.5097Q96.5095,12.1231,95.944,12.1231Q95.0665,12.1231,94.5494,12.5157Q94.0326,12.9084,93.8241,13.8237Q93.616,14.7391,93.616,16.3539L93.616,26L92.224,26L92.224,16.4881Q92.224,14.8344,92.0875,13.8774Q91.9514,12.92,91.6244,12.5217Q91.2978,12.1231,90.7323,12.1231Q89.8548,12.1231,89.3376,12.5157Q88.8209,12.9084,88.6124,13.8237Q88.4043,14.7391,88.4043,16.3539L88.4043,26L87.0123,26ZM106.892,26.336Q104.745,26.336,103.51,25.628Q102.275,24.92,101.761,23.216Q101.248,21.512,101.248,18.584Q101.248,15.632,101.761,13.94Q102.275,12.248,103.51,11.54Q104.745,10.832,106.892,10.832Q109.014,10.832,110.221,11.5479Q111.429,12.2634,111.93,13.9865Q112.432,15.7096,112.432,18.6961L101.944,18.6961L101.944,17.4159L111.012,17.4159Q111.012,15.4036,110.638,14.2494Q110.263,13.0947,109.362,12.6039Q108.462,12.1126,106.892,12.1126Q105.27,12.1126,104.343,12.6853Q103.417,13.2579,103.028,14.6217Q102.64,15.9852,102.64,18.368Q102.64,20.8948,103.028,22.3565Q103.417,23.8179,104.343,24.4366Q105.27,25.0554,106.892,25.0554Q107.812,25.0554,108.479,24.8716Q109.145,24.6879,109.707,24.2604Q110.269,23.8325,110.849,23.0769L111.963,23.8246Q111.271,24.779,110.58,25.3302Q109.889,25.8811,109.016,26.1084Q108.143,26.336,106.892,26.336Z" fill="#FEFEFE" fill-opacity="1"/><path d="M121.93,28.61Q120.184,28.61,118.879,27.386Q117.574,26.162,116.845,23.948Q116.116,21.734,116.116,18.8Q116.116,15.848,116.845,13.643Q117.574,11.438,118.879,10.214Q120.184,8.99,121.93,8.99L121.93,10.646Q120.724,10.646,119.824,11.663Q118.924,12.68,118.42,14.516Q117.916,16.352,117.916,18.8Q117.916,21.248,118.42,23.084Q118.924,24.92,119.824,25.937Q120.724,26.954,121.93,26.954L121.93,28.61ZM126.43,28.61L126.43,26.954Q127.636,26.954,128.536,25.937Q129.436,24.92,129.94,23.084Q130.444,21.248,130.444,18.8Q130.444,16.352,129.94,14.516Q129.436,12.68,128.536,11.663Q127.636,10.646,126.43,10.646L126.43,8.99Q128.176,8.99,129.481,10.214Q130.786,11.438,131.515,13.643Q132.244,15.848,132.244,18.8Q132.244,21.734,131.515,23.948Q130.786,26.162,129.481,27.386Q128.176,28.61,126.43,28.61Z" fill="#7994D0" fill-opacity="0.49000000953674316"/></g></svg>